<svg width="24" height="24" viewBox="0 0 24 24" fill="none" xmlns="http://www.w3.org/2000/svg">
<path d="M16.8198 1.90991H7.17982C5.05982 1.90991 3.31982 3.64991 3.31982 5.76991V19.8599C3.31982 21.6599 4.60982 22.4199 6.18982 21.5499L11.0698 18.8399C11.5898 18.5499 12.4298 18.5499 12.9398 18.8399L17.8198 21.5499C19.3998 22.4299 20.6898 21.6699 20.6898 19.8599V5.76991C20.6798 3.64991 18.9498 1.90991 16.8198 1.90991ZM15.6198 9.02991L11.6198 13.0299C11.4698 13.1799 11.2798 13.2499 11.0898 13.2499C10.8998 13.2499 10.7098 13.1799 10.5598 13.0299L9.05982 11.5299C8.76982 11.2399 8.76982 10.7599 9.05982 10.4699C9.34982 10.1799 9.82982 10.1799 10.1198 10.4699L11.0898 11.4399L14.5598 7.96991C14.8498 7.67991 15.3298 7.67991 15.6198 7.96991C15.9098 8.25991 15.9098 8.73991 15.6198 9.02991Z" fill="#292D32"/>
</svg>
