<svg width="20" height="20" viewBox="0 0 20 20" fill="none" xmlns="http://www.w3.org/2000/svg">
<path fill-rule="evenodd" clip-rule="evenodd" d="M2.9269 10C3.95666 12.9138 6.73592 15 10.0004 15C13.2648 15 16.0441 12.9139 17.0739 10.0001C16.0441 7.08625 13.2648 5.00004 10.0004 5.00004C6.73592 5.00004 3.95667 7.08623 2.9269 10ZM1.2535 9.7503C2.42135 6.03206 5.89461 3.33337 10.0004 3.33337C14.1061 3.33337 17.5794 6.03209 18.7472 9.75037C18.7983 9.91292 18.7983 10.0872 18.7472 10.2498C17.5794 13.968 14.1061 16.6667 10.0004 16.6667C5.89461 16.6667 2.42133 13.968 1.2535 10.2497C1.20245 10.0872 1.20245 9.91286 1.2535 9.7503ZM10 8.33337C9.07953 8.33337 8.33333 9.07957 8.33333 10C8.33333 10.9205 9.07953 11.6667 10 11.6667C10.9205 11.6667 11.6667 10.9205 11.6667 10C11.6667 9.07957 10.9205 8.33337 10 8.33337ZM6.66667 10C6.66667 8.15909 8.15905 6.66671 10 6.66671C11.8409 6.66671 13.3333 8.15909 13.3333 10C13.3333 11.841 11.8409 13.3334 10 13.3334C8.15905 13.3334 6.66667 11.841 6.66667 10Z" fill="#A6A6A6"/>
</svg>
