<svg width="20" height="20" viewBox="0 0 20 20" fill="none" xmlns="http://www.w3.org/2000/svg">
<path d="M15.6333 6.66742V8.41759C15.2666 8.36759 14.8499 8.34259 14.3832 8.33425V6.66742C14.3832 4.04216 13.6415 2.29199 10.0078 2.29199C6.37407 2.29199 5.63233 4.04216 5.63233 6.66742V8.33425C5.16562 8.34259 4.74891 8.36759 4.38221 8.41759V6.66742C4.38221 4.25052 4.9656 1.04187 10.0078 1.04187C15.0499 1.04187 15.6333 4.25052 15.6333 6.66742Z" fill="#1E1E1E"/>
<path d="M15.6332 8.41623C15.2665 8.36622 14.8498 8.34122 14.3831 8.33289H5.63225C5.16554 8.34122 4.74883 8.36622 4.38213 8.41623C2.25692 8.67459 1.67353 9.71636 1.67353 12.5V14.1668C1.67353 17.5005 2.50695 18.3339 5.84061 18.3339H14.1748C17.5084 18.3339 18.3418 17.5005 18.3418 14.1668V12.5C18.3418 9.71636 17.7584 8.67459 15.6332 8.41623ZM7.26575 13.9251C7.1074 14.0751 6.89071 14.1668 6.67402 14.1668C6.56568 14.1668 6.45733 14.1418 6.35732 14.1001C6.24898 14.0584 6.16564 14.0001 6.0823 13.9251C5.93228 13.7668 5.84061 13.5501 5.84061 13.3334C5.84061 13.225 5.86561 13.1167 5.90728 13.0167C5.94895 12.9167 6.00729 12.825 6.0823 12.7417C6.16564 12.6666 6.24898 12.6083 6.35732 12.5666C6.66569 12.4333 7.03239 12.5083 7.26575 12.7417C7.34075 12.825 7.39909 12.9167 7.44076 13.0167C7.48243 13.1167 7.50744 13.225 7.50744 13.3334C7.50744 13.5501 7.41576 13.7668 7.26575 13.9251ZM10.7744 13.6501C10.7328 13.7501 10.6744 13.8418 10.5994 13.9251C10.4411 14.0751 10.2244 14.1668 10.0077 14.1668C9.78266 14.1668 9.57431 14.0751 9.41596 13.9251C9.34095 13.8418 9.28261 13.7501 9.24094 13.6501C9.19927 13.5501 9.17427 13.4417 9.17427 13.3334C9.17427 13.1084 9.26594 12.9 9.41596 12.7417C9.72432 12.4333 10.2827 12.4333 10.5994 12.7417C10.7494 12.9 10.8411 13.1084 10.8411 13.3334C10.8411 13.4417 10.8161 13.5501 10.7744 13.6501ZM13.9331 13.9251C13.7747 14.0751 13.558 14.1668 13.3413 14.1668C13.1247 14.1668 12.908 14.0751 12.7496 13.9251C12.5996 13.7668 12.5079 13.5584 12.5079 13.3334C12.5079 13.1084 12.5996 12.9 12.7496 12.7417C13.0663 12.4333 13.6247 12.4333 13.9331 12.7417C13.9664 12.7833 13.9997 12.825 14.0331 12.875C14.0664 12.9167 14.0914 12.9667 14.1081 13.0167C14.1331 13.0667 14.1498 13.1167 14.1581 13.1667C14.1664 13.225 14.1748 13.2834 14.1748 13.3334C14.1748 13.5501 14.0831 13.7668 13.9331 13.9251Z" fill="#1E1E1E"/>
</svg>
