<svg width="20" height="20" viewBox="0 0 20 20" fill="none" xmlns="http://www.w3.org/2000/svg">
<path d="M1.2525 5.81438C1.28422 5.09043 1.59414 4.40667 2.11766 3.90563C2.64117 3.40459 3.33786 3.12495 4.0625 3.125H15.9375C16.6621 3.12495 17.3588 3.40459 17.8823 3.90563C18.4059 4.40667 18.7158 5.09043 18.7475 5.81438L17.825 6.32688L10 10.54L2.175 6.32688L1.2525 5.81438ZM1.25 7.2425V14.0625C1.25 14.8084 1.54632 15.5238 2.07376 16.0512C2.60121 16.5787 3.31658 16.875 4.0625 16.875H15.9375C16.6834 16.875 17.3988 16.5787 17.9262 16.0512C18.4537 15.5238 18.75 14.8084 18.75 14.0625V7.2425L18.4213 7.42562L10.2963 11.8006C10.2052 11.8496 10.1034 11.8753 10 11.8753C9.89659 11.8753 9.7948 11.8496 9.70375 11.8006L1.57125 7.42125L1.25 7.2425Z" fill="#1E1E1E"/>
</svg>
